# 3ds Max Wavefront OBJ Exporter v0.97b - (c)2007 guruware
# File Created: 24.09.2014 06:58:13

mtllib Paper weights.mtl

#
# object Hedra005
#

v  113.6190 55.6046 109.0639
v  145.0398 55.6017 90.9231
v  113.6190 55.6046 72.7823
v  145.1707 55.5017 90.6964
v  141.1682 34.5549 61.3440
v  113.7499 55.5045 72.5556
v  140.9873 34.3931 61.2038
v  107.0929 21.4501 61.2038
v  113.5690 55.3428 72.4154
v  106.8502 21.4501 61.3440
v  89.9047 34.3977 90.6964
v  113.3263 55.3428 72.5556
v  89.9357 34.5595 90.9231
v  113.3572 55.5046 109.0639
v  113.3572 55.5046 72.7823
v  89.9047 34.3977 91.1498
v  106.8502 21.4501 120.5022
v  113.3263 55.3428 109.2906
v  107.0929 21.4501 120.6423
v  140.9873 34.3931 120.6423
v  113.5690 55.3428 109.4307
v  141.1682 34.5549 120.5022
v  145.1707 55.5017 91.1498
v  113.7499 55.5045 109.2906
v  145.3824 55.3399 90.7830
v  158.3255 21.4455 90.7830
v  141.3800 34.3931 61.4306
v  145.3824 55.3399 91.0632
v  141.3800 34.3931 120.4156
v  158.3255 21.4455 91.0632
v  107.1929 21.1883 120.6423
v  134.6112 0.2387 109.4307
v  141.0873 34.1313 120.6423
v  134.8539 0.2386 109.2906
v  158.2754 21.1837 91.1498
v  141.3300 34.1313 120.5022
v  158.2754 21.1837 90.6964
v  134.8539 0.2386 72.5556
v  141.3300 34.1313 61.3440
v  158.2445 21.0219 90.9231
v  134.8230 0.0768 109.0639
v  134.8230 0.0768 72.7823
v  107.0120 21.0265 120.5022
v  103.0095 0.0797 91.1498
v  134.4303 0.0769 109.2906
v  103.1404 -0.0203 90.9231
v  134.5612 -0.0231 72.7823
v  134.5612 -0.0231 109.0639
v  134.6112 0.2387 72.4154
v  107.1929 21.1883 61.2038
v  141.0873 34.1313 61.2038
v  134.4303 0.0769 72.5556
v  103.0095 0.0797 90.6964
v  107.0120 21.0265 61.3440
v  106.8002 21.1883 120.4156
v  89.8547 34.1359 91.0632
v  102.7977 0.2415 91.0632
v  89.8547 34.1359 90.7830
v  106.8002 21.1883 61.4306
v  102.7977 0.2415 90.7830
# 60 vertices

vn 0.0001 1.0000 -0.0000
vn 0.3334 0.7453 -0.5774
vn -0.1273 0.3333 -0.9342
vn -0.7453 0.3334 -0.5774
vn -0.6666 0.7454 -0.0000
vn -0.7453 0.3334 0.5774
vn -0.1273 0.3333 0.9342
vn 0.3334 0.7453 0.5774
vn 0.8727 0.3333 -0.3568
vn 0.8727 0.3333 0.3568
vn 0.1273 -0.3333 0.9342
vn 0.7453 -0.3334 0.5774
vn 0.7453 -0.3334 -0.5774
vn 0.6666 -0.7454 -0.0000
vn -0.3334 -0.7453 0.5774
vn -0.0001 -1.0000 -0.0000
vn 0.1273 -0.3333 -0.9342
vn -0.3334 -0.7453 -0.5774
vn -0.8727 -0.3333 0.3568
vn -0.8727 -0.3333 -0.3568
vn -0.3035 0.7947 -0.5257
vn -0.3035 0.7947 0.5257
vn 0.6071 0.7946 -0.0000
vn 0.6071 0.7946 0.0000
vn 0.4911 0.1875 -0.8507
vn -0.4911 -0.1875 -0.8507
vn -0.4911 -0.1876 -0.8507
vn -0.9822 0.1877 -0.0000
vn -0.4911 -0.1875 0.8507
vn 0.4911 0.1875 0.8507
vn 0.9822 -0.1877 -0.0000
vn 0.3035 -0.7947 0.5257
vn 0.3035 -0.7947 -0.5257
vn -0.6071 -0.7946 -0.0000
vn 0.1785 0.9342 0.3090
vn 0.1785 0.9342 -0.3090
vn -0.3567 0.9342 -0.0000
vn 0.6456 0.5773 -0.5000
vn 0.1103 0.5773 -0.8090
vn 0.0000 0.0000 -1.0000
vn -0.4671 0.3569 -0.8090
vn -0.8660 0.0001 -0.5000
vn -0.7557 0.5774 -0.3090
vn -0.7557 0.5774 0.3090
vn -0.8660 0.0001 0.5000
vn -0.4671 0.3569 0.8090
vn 0.0000 0.0000 1.0000
vn 0.1103 0.5773 0.8090
vn 0.6456 0.5773 0.5000
vn 0.9342 0.3567 -0.0000
vn 0.8660 -0.0001 -0.5000
vn 0.8660 -0.0001 0.5000
vn -0.1103 -0.5773 0.8090
vn 0.4671 -0.3569 0.8090
vn 0.7557 -0.5774 0.3090
vn 0.7557 -0.5774 -0.3090
vn 0.4671 -0.3569 -0.8090
vn 0.3567 -0.9342 -0.0000
vn -0.6456 -0.5773 0.5000
vn -0.1785 -0.9342 0.3090
vn -0.1785 -0.9342 -0.3090
vn -0.1103 -0.5773 -0.8090
vn -0.6456 -0.5773 -0.5000
vn -0.9342 -0.3567 -0.0000
# 64 vertex normals

vt 0.1872 -0.4412 0.0000
vt -0.0474 -0.9371 0.0000
vt 0.5010 -0.9252 0.0000
vt 1.2998 0.7457 0.0000
vt 1.5908 0.2477 0.0000
vt 1.8766 0.7488 0.0000
vt -0.6678 0.1446 0.0000
vt -0.3539 -0.3394 0.0000
vt -0.1193 0.1565 0.0000
vt 1.4067 -0.3575 0.0000
vt 1.1272 0.1470 0.0000
vt 0.8300 -0.3473 0.0000
vt 0.7394 -0.4269 0.0000
vt 0.1909 -0.4388 0.0000
vt 0.5048 -0.9228 0.0000
vt 0.6355 1.9228 0.0000
vt 0.9265 1.4248 0.0000
vt 1.2123 1.9258 0.0000
vt -0.6678 0.7498 0.0000
vt -0.3539 0.2658 0.0000
vt -0.1193 0.7617 0.0000
vt 0.5480 0.8398 0.0000
vt 0.2685 1.3443 0.0000
vt -0.0287 0.8500 0.0000
vt -0.3577 0.8686 0.0000
vt -0.6715 1.3526 0.0000
vt -0.9061 0.8567 0.0000
vt -0.3539 0.8710 0.0000
vt -0.1193 1.3669 0.0000
vt -0.6678 1.3550 0.0000
vt -0.6715 0.7474 0.0000
vt -0.9061 0.2515 0.0000
vt -0.3577 0.2634 0.0000
vt 0.6355 0.8362 0.0000
vt 1.2123 0.8393 0.0000
vt 0.9213 1.3373 0.0000
vt -0.6297 1.4363 0.0000
vt -0.3325 1.9307 0.0000
vt -0.9092 1.9409 0.0000
vt -0.0256 -0.3537 0.0000
vt 0.5229 -0.3418 0.0000
vt 0.2091 0.1421 0.0000
vt -0.0287 0.7523 0.0000
vt 0.2508 0.2477 0.0000
vt 0.5480 0.7421 0.0000
vt 0.7613 0.1565 0.0000
vt 0.2128 0.1446 0.0000
vt 0.5266 -0.3394 0.0000
vt -0.9061 -0.3537 0.0000
vt -0.3577 -0.3418 0.0000
vt -0.6715 0.1421 0.0000
vt 0.6355 0.2477 0.0000
vt 1.2123 0.2507 0.0000
vt 0.9213 0.7488 0.0000
vt -0.9061 -0.9371 0.0000
vt -0.3577 -0.9252 0.0000
vt -0.6715 -0.4412 0.0000
vt -0.3539 -0.9228 0.0000
vt -0.1193 -0.4269 0.0000
vt -0.6678 -0.4388 0.0000
vt 0.5018 -0.9290 0.0000
vt 0.5061 -0.9289 0.0000
vt 0.5079 -0.9251 0.0000
vt 0.1901 -0.4350 0.0000
vt 0.1859 -0.4351 0.0000
vt 0.1841 -0.4390 0.0000
vt -0.3526 0.8649 0.0000
vt -0.3508 0.8688 0.0000
vt -0.3569 0.8649 0.0000
vt -0.6686 0.1483 0.0000
vt -0.6728 0.1482 0.0000
vt -0.6746 0.1444 0.0000
vt -0.3569 -0.3456 0.0000
vt -0.3526 -0.3455 0.0000
vt -0.3508 -0.3417 0.0000
vt -0.3508 -0.9251 0.0000
vt -0.3569 -0.9290 0.0000
vt -0.3526 -0.9289 0.0000
vt -0.6686 0.7536 0.0000
vt -0.6728 0.7535 0.0000
vt -0.6746 0.7496 0.0000
vt -0.3569 0.2596 0.0000
vt -0.3526 0.2597 0.0000
vt -0.3508 0.2635 0.0000
vt -0.6686 1.3588 0.0000
vt -0.6728 1.3587 0.0000
vt -0.6746 1.3549 0.0000
vt 0.5297 -0.3417 0.0000
vt 0.5237 -0.3456 0.0000
vt 0.5279 -0.3455 0.0000
vt 0.2059 0.1444 0.0000
vt 0.2120 0.1483 0.0000
vt 0.2078 0.1482 0.0000
vt -0.6686 -0.4350 0.0000
vt -0.6728 -0.4351 0.0000
vt -0.6746 -0.4390 0.0000
vt -0.0506 -0.9348 0.0000
vt -0.0466 -0.9409 0.0000
vt -0.9053 0.8530 0.0000
vt -0.1201 0.1602 0.0000
vt -0.1162 0.1542 0.0000
vt -0.1162 -0.4292 0.0000
vt 0.7425 -0.4292 0.0000
vt 0.7386 -0.4231 0.0000
vt -0.9053 -0.9409 0.0000
vt -0.1201 0.7655 0.0000
vt -0.1162 0.7594 0.0000
vt -0.1162 1.3647 0.0000
vt -0.9092 0.8590 0.0000
vt -0.1201 1.3707 0.0000
vt -0.9092 0.2538 0.0000
vt -0.9053 0.2477 0.0000
vt -0.0248 -0.3575 0.0000
vt -0.0287 -0.3515 0.0000
vt -0.9092 -0.3515 0.0000
vt -0.9092 -0.9348 0.0000
vt 0.7644 0.1542 0.0000
vt 0.7605 0.1602 0.0000
vt -0.9053 -0.3575 0.0000
vt -0.1201 -0.4231 0.0000
# 120 texture coords

g Hedra005
usemtl wire_138008110
s off
f 1/1/1 2/2/1 3/3/1 
f 4/4/2 5/5/2 6/6/2 
f 7/7/3 8/8/3 9/9/3 
f 10/10/4 11/11/4 12/12/4 
f 13/13/5 14/14/5 15/15/5 
f 16/16/6 17/17/6 18/18/6 
f 19/19/7 20/20/7 21/21/7 
f 22/22/8 23/23/8 24/24/8 
f 25/25/9 26/26/9 27/27/9 
f 28/28/10 29/29/10 30/30/10 
f 31/31/11 32/32/11 33/33/11 
f 34/34/12 35/35/12 36/36/12 
f 37/37/13 38/38/13 39/39/13 
f 40/40/14 41/41/14 42/42/14 
f 43/43/15 44/44/15 45/45/15 
f 46/46/16 47/47/16 48/48/16 
f 49/49/17 50/50/17 51/51/17 
f 52/52/18 53/53/18 54/54/18 
f 55/55/19 56/56/19 57/57/19 
f 58/58/20 59/59/20 60/60/20 
f 3/3/21 6/61/21 9/62/21 12/63/21 
f 3/3/21 12/63/21 15/15/21 
f 14/14/22 18/64/22 21/65/22 24/66/22 
f 14/14/22 24/66/22 1/1/22 
f 2/67/23 23/68/23 28/28/23 25/25/23 
f 2/67/24 25/25/24 4/69/24 
f 5/70/25 27/71/25 39/72/25 51/51/25 
f 5/70/25 51/51/25 7/7/25 
f 8/8/26 50/50/26 54/73/26 59/74/26 
f 8/8/27 59/74/27 10/75/27 
f 11/76/28 58/58/28 56/56/28 16/77/28 
f 11/76/28 16/77/28 13/78/28 
f 17/79/29 55/80/29 43/81/29 31/31/29 
f 17/79/29 31/31/29 19/19/29 
f 20/20/30 33/33/30 36/82/30 29/83/30 
f 20/20/30 29/83/30 22/84/30 
f 30/30/31 35/85/31 40/86/31 37/87/31 
f 30/30/31 37/87/31 26/26/31 
f 45/88/32 48/48/32 41/41/32 34/89/32 
f 45/88/32 34/89/32 32/90/32 
f 38/91/33 42/42/33 47/47/33 52/92/33 
f 38/91/33 52/92/33 49/93/33 
f 53/94/34 46/95/34 44/96/34 57/57/34 
f 53/94/34 57/57/34 60/60/34 
f 1/1/35 24/66/35 23/97/35 2/2/35 
f 2/2/36 4/98/36 6/61/36 3/3/36 
f 3/3/37 15/15/37 14/14/37 1/1/37 
f 4/69/38 25/25/38 27/27/38 5/99/38 
f 5/70/39 7/7/39 9/9/39 6/100/39 
f 7/7/40 51/51/40 50/50/40 8/8/40 
f 8/8/41 10/75/41 12/101/41 9/9/41 
f 10/102/42 59/59/42 58/58/42 11/76/42 
f 11/103/43 13/13/43 15/15/43 12/63/43 
f 13/13/44 16/104/44 18/64/44 14/14/44 
f 16/77/45 56/56/45 55/55/45 17/105/45 
f 17/79/46 19/19/46 21/21/46 18/106/46 
f 19/19/47 31/31/47 33/33/47 20/20/47 
f 20/20/48 22/84/48 24/107/48 21/21/48 
f 22/108/49 29/29/49 28/28/49 23/68/49 
f 25/25/50 28/28/50 30/30/50 26/26/50 
f 26/26/51 37/87/51 39/109/51 27/27/51 
f 29/29/52 36/110/52 35/85/52 30/30/52 
f 31/31/53 43/81/53 45/111/53 32/32/53 
f 32/32/54 34/112/54 36/82/54 33/33/54 
f 34/89/55 41/41/55 40/40/55 35/113/55 
f 37/114/56 40/40/56 42/42/56 38/91/56 
f 38/115/57 49/49/57 51/51/57 39/72/57 
f 41/41/58 48/48/58 47/47/58 42/42/58 
f 43/116/59 55/55/59 57/57/59 44/96/59 
f 44/117/60 46/46/60 48/48/60 45/88/60 
f 46/46/61 53/118/61 52/92/61 47/47/61 
f 49/49/62 52/119/62 54/73/62 50/50/62 
f 53/94/63 60/60/63 59/59/63 54/120/63 
f 56/56/64 58/58/64 60/60/64 57/57/64 
# 42 polygons - 32 triangles

#
# object Hedra006
#

v  -6.8227 40.3342 90.9231
v  35.5933 40.3819 115.4120
v  35.5933 40.3819 66.4342
v  35.6936 40.0991 66.2609
v  49.8772 0.1248 90.7499
v  7.4612 0.0771 66.2609
v  7.1612 0.0768 66.4342
v  7.1612 0.0768 115.4120
v  -7.0224 40.0511 90.9231
v  7.4612 0.0771 115.5852
v  49.8772 0.1248 91.0963
v  35.6936 40.0991 115.5852
v  35.4935 40.2403 66.2609
v  7.2610 0.2183 66.2609
v  -6.9226 40.1927 90.7499
v  7.2610 0.2183 115.5852
v  35.4935 40.2403 115.5852
v  -6.9226 40.1927 91.0963
v  35.7935 40.2407 115.4120
v  49.9771 0.2663 90.9231
v  35.7935 40.2407 66.4342
v  7.3614 -0.0644 115.4120
v  7.3614 -0.0644 66.4342
v  49.7774 -0.0167 90.9231
# 24 vertices

vn -0.0011 1.0000 -0.0000
vn 0.4718 -0.3328 -0.8165
vn -0.9424 -0.3344 0.0000
vn 0.4718 -0.3328 0.8165
vn -0.4718 0.3328 -0.8165
vn -0.4718 0.3328 0.8165
vn 0.9424 0.3344 0.0000
vn 0.0011 -1.0000 -0.0000
vn -0.8171 0.5764 -0.0000
vn 0.4076 0.5778 -0.7071
vn -0.4076 -0.5778 -0.7071
vn -0.4076 -0.5778 0.7071
vn 0.4076 0.5778 0.7071
vn 0.8171 -0.5764 -0.0000
vn -0.2896 0.8162 0.5000
vn 0.5764 0.8171 -0.0000
vn -0.2896 0.8162 -0.5000
vn 0.8660 0.0010 -0.5000
vn 0.2896 -0.8162 -0.5000
vn 0.0000 0.0000 -1.0000
vn -0.5764 -0.8171 -0.0000
vn -0.8660 -0.0010 0.5000
vn -0.8660 -0.0010 -0.5000
vn 0.2896 -0.8162 0.5000
vn 0.8660 0.0010 0.5000
vn 0.0000 0.0000 1.0000
# 26 vertex normals

vt 0.3821 -0.3470 0.0000
vt 0.7408 0.0883 0.0000
vt 0.2799 0.1654 0.0000
vt -0.2312 -0.2705 0.0000
vt 0.1275 0.1648 0.0000
vt -0.3949 0.1672 0.0000
vt 0.0645 0.6546 0.0000
vt -0.3964 0.7316 0.0000
vt -0.2942 0.2193 0.0000
vt -0.1604 0.7796 0.0000
vt 0.1700 1.1843 0.0000
vt -0.3941 1.1843 0.0000
vt 0.2304 0.2151 0.0000
vt 0.0667 0.6528 0.0000
vt -0.2920 0.2175 0.0000
vt 0.9067 -0.3512 0.0000
vt 0.7430 0.0865 0.0000
vt 0.3843 -0.3488 0.0000
vt 0.2319 -0.3493 0.0000
vt 0.1297 0.1630 0.0000
vt -0.2290 -0.2723 0.0000
vt 0.2807 0.6198 0.0000
vt 0.5144 0.2151 0.0000
vt 0.8448 0.6198 0.0000
vt -0.2953 0.2180 0.0000
vt -0.2931 0.2162 0.0000
vt -0.2305 -0.2741 0.0000
vt -0.2327 -0.2723 0.0000
vt 0.2180 0.7796 0.0000
vt 0.2203 0.7796 0.0000
vt 0.2203 0.7825 0.0000
vt 0.2180 0.7825 0.0000
vt 0.2784 0.6198 0.0000
vt 0.2807 0.6227 0.0000
vt 0.2784 0.6227 0.0000
vt -0.3964 1.1843 0.0000
vt -0.3941 1.1872 0.0000
vt -0.3964 1.1872 0.0000
vt 0.1308 0.1643 0.0000
vt 0.1286 0.1661 0.0000
vt 0.2304 -0.3512 0.0000
vt 0.1676 1.2352 0.0000
vt 0.1676 1.2380 0.0000
vt -0.3964 1.2380 0.0000
vt -0.3964 1.2352 0.0000
vt 0.7844 0.7796 0.0000
vt 0.7844 0.7825 0.0000
vt -0.3964 0.1653 0.0000
vt 0.5120 0.2151 0.0000
vt 1.3964 0.7796 0.0000
vt 1.3964 0.7825 0.0000
vt 0.8324 0.7825 0.0000
vt 0.8324 0.7796 0.0000
vt 0.8448 0.6227 0.0000
vt 0.1700 1.1872 0.0000
vt -0.1628 0.7796 0.0000
# 56 texture coords

g Hedra006
usemtl wire_138008110
s off
f 61/121/65 62/122/65 63/123/65 
f 64/124/66 65/125/66 66/126/66 
f 67/127/67 68/128/67 69/129/67 
f 70/130/68 71/131/68 72/132/68 
f 73/133/69 74/134/69 75/135/69 
f 76/136/70 77/137/70 78/138/70 
f 79/139/71 80/140/71 81/141/71 
f 82/142/72 83/143/72 84/144/72 
f 75/135/73 69/129/73 78/145/73 61/146/73 
f 63/147/74 81/141/74 64/124/74 73/148/74 
f 74/149/75 66/150/75 83/151/75 67/152/75 
f 68/153/76 82/142/76 70/154/76 76/155/76 
f 77/156/77 72/132/77 79/157/77 62/158/77 
f 80/140/78 71/159/78 84/160/78 65/125/78 
f 61/121/79 78/138/79 77/137/79 62/122/79 
f 62/161/80 79/139/80 81/141/80 63/147/80 
f 63/162/81 73/163/81 75/164/81 61/165/81 
f 64/124/82 81/141/82 80/140/82 65/125/82 
f 65/166/83 84/167/83 83/151/83 66/150/83 
f 66/126/84 74/168/84 73/148/84 64/124/84 
f 67/169/85 83/143/85 82/142/85 68/153/85 
f 68/170/86 76/171/86 78/172/86 69/173/86 
f 69/129/87 75/135/87 74/134/87 67/127/87 
f 70/154/88 82/142/88 84/144/88 71/174/88 
f 71/131/89 80/175/89 79/157/89 72/132/89 
f 72/132/90 77/156/90 76/176/90 70/130/90 
# 18 polygons - 8 triangles

#
# object Hedra007
#

v  -104.6150 55.5442 90.8338
v  -90.0233 55.5275 70.7499
v  -94.0805 34.4147 58.3375
v  -111.1797 21.3830 70.7499
v  -117.6904 34.4418 90.8338
v  -117.6904 34.4418 91.0124
v  -111.1797 21.3830 111.0962
v  -94.0805 34.4147 123.5087
v  -90.0233 55.5275 111.0962
v  -104.6150 55.5442 91.0124
v  -89.9002 55.6213 111.0069
v  -66.2903 55.5943 103.3356
v  -66.2903 55.5943 78.5106
v  -89.9002 55.6213 70.8393
v  -104.4920 55.6380 90.9231
v  -89.8534 55.5273 111.1514
v  -93.9106 34.4146 123.5639
v  -72.8082 21.3391 123.5639
v  -55.7089 34.3708 111.1514
v  -66.2434 55.5003 103.4801
v  -55.6039 34.3707 111.0069
v  -49.0932 21.3120 90.9231
v  -55.6039 34.3707 70.8393
v  -66.1384 55.5002 78.5106
v  -66.1384 55.5002 103.3356
v  -55.6331 34.2188 111.0962
v  -72.7324 21.1871 123.5087
v  -76.7896 0.0743 111.0962
v  -62.1978 0.0576 91.0124
v  -49.1224 21.1601 91.0124
v  -62.1978 0.0576 90.8338
v  -76.7896 0.0743 70.7499
v  -72.7324 21.1871 58.3375
v  -55.6331 34.2188 70.7499
v  -49.1224 21.1601 90.8338
v  -62.3209 -0.0361 90.9231
v  -76.9126 -0.0194 111.0069
v  -100.5226 0.0076 103.3356
v  -100.5226 0.0076 78.5106
v  -76.9126 -0.0194 70.8393
v  -100.5694 0.1015 78.3661
v  -111.1039 21.2310 70.6947
v  -94.0047 34.2627 58.2822
v  -72.9022 21.1873 58.2822
v  -76.9595 0.0745 70.6947
v  -100.6744 0.1017 78.5106
v  -100.6744 0.1017 103.3356
v  -111.2089 21.2311 111.0069
v  -117.7196 34.2898 90.9231
v  -111.2089 21.2311 70.8393
v  -100.5694 0.1015 103.4801
v  -76.9595 0.0745 111.1514
v  -72.9022 21.1873 123.5639
v  -94.0047 34.2627 123.5639
v  -111.1039 21.2310 111.1514
v  -93.9106 34.4146 58.2822
v  -89.8534 55.5273 70.6947
v  -66.2434 55.5003 78.3661
v  -55.7089 34.3708 70.6947
v  -72.8082 21.3391 58.2822
# 60 vertices

vn -0.7231 0.4480 -0.5257
vn -0.7231 0.4480 0.5257
vn 0.0011 1.0000 -0.0000
vn 0.2769 0.4469 0.8507
vn 0.8949 0.4462 -0.0000
vn 0.7231 -0.4480 0.5257
vn 0.7231 -0.4480 -0.5257
vn -0.0011 -1.0000 0.0000
vn -0.0011 -1.0000 -0.0000
vn -0.2769 -0.4469 -0.8507
vn -0.8949 -0.4462 0.0000
vn -0.8949 -0.4462 -0.0000
vn -0.2769 -0.4469 0.8507
vn 0.2769 0.4469 -0.8507
vn -0.6062 0.7953 -0.0000
vn -0.9820 0.1887 -0.0000
vn -0.1867 0.7949 -0.5774
vn -0.3033 0.1879 -0.9342
vn -0.7949 -0.1867 -0.5774
vn -0.7949 -0.1867 0.5774
vn -0.3033 0.1879 0.9342
vn -0.1867 0.7949 0.5774
vn 0.4920 0.7941 -0.3568
vn 0.4920 0.7941 0.3568
vn 0.3033 -0.1879 0.9342
vn 0.7949 0.1867 0.5774
vn 0.7949 0.1867 -0.5774
vn 0.9820 -0.1887 -0.0000
vn 0.1867 -0.7949 0.5774
vn 0.6062 -0.7953 -0.0000
vn 0.3033 -0.1879 -0.9342
vn 0.1867 -0.7949 -0.5774
vn -0.4920 -0.7941 0.3568
vn -0.4920 -0.7941 -0.3568
vn -0.4244 0.8511 -0.3090
vn -0.2623 0.5260 -0.8090
vn -0.5878 0.0007 -0.8090
vn -0.9511 0.0011 -0.3090
vn -0.8500 0.5267 -0.0000
vn -0.9511 0.0011 0.3090
vn -0.5878 0.0007 0.8090
vn -0.2623 0.5260 0.8090
vn -0.4244 0.8511 0.3090
vn 0.1634 0.8505 0.5000
vn 0.5267 0.8500 -0.0000
vn 0.1634 0.8505 -0.5000
vn 0.0000 0.0000 1.0000
vn 0.5878 -0.0007 0.8090
vn 0.6888 0.5249 0.5000
vn 0.9511 -0.0011 0.3090
vn 0.9511 -0.0011 -0.3090
vn 0.6888 0.5249 -0.5000
vn 0.2623 -0.5260 0.8090
vn 0.4244 -0.8511 0.3090
vn 0.8500 -0.5267 -0.0000
vn 0.4244 -0.8511 -0.3090
vn 0.2623 -0.5260 -0.8090
vn 0.5878 -0.0007 -0.8090
vn -0.1634 -0.8505 0.5000
vn -0.5267 -0.8500 -0.0000
vn -0.1634 -0.8505 -0.5000
vn -0.6888 -0.5249 -0.5000
vn 0.0000 0.0000 -1.0000
vn -0.6888 -0.5249 0.5000
# 64 vertex normals

vt 0.1612 0.0979 0.0000
vt 0.3307 0.4159 0.0000
vt 0.1427 0.6422 0.0000
vt -0.1429 0.4641 0.0000
vt -0.1314 0.1277 0.0000
vt 1.1871 -0.8105 0.0000
vt 1.3566 -0.4925 0.0000
vt 1.1686 -0.2662 0.0000
vt 0.8830 -0.4443 0.0000
vt 0.8944 -0.7807 0.0000
vt 0.8804 -0.4444 0.0000
vt 0.5834 -0.2861 0.0000
vt 0.4112 -0.5246 0.0000
vt 0.6019 -0.8304 0.0000
vt 0.8918 -0.7808 0.0000
vt 0.3311 0.9153 0.0000
vt 0.1571 1.2308 0.0000
vt -0.1352 1.1969 0.0000
vt -0.1418 0.8603 0.0000
vt 0.1464 0.6863 0.0000
vt -0.3122 -0.0013 0.0000
vt -0.4283 -0.2716 0.0000
vt -0.1398 -0.4450 0.0000
vt 0.1546 -0.2819 0.0000
vt 0.0481 -0.0077 0.0000
vt -0.1444 0.8604 0.0000
vt -0.1377 1.1969 0.0000
vt -0.4284 1.2424 0.0000
vt -0.6147 0.9339 0.0000
vt -0.4391 0.6978 0.0000
vt -0.6139 -0.5032 0.0000
vt -0.4393 -0.8184 0.0000
vt -0.1471 -0.7838 0.0000
vt -0.1412 -0.4473 0.0000
vt -0.4297 -0.2738 0.0000
vt 1.1428 0.6240 0.0000
vt 0.8463 0.4646 0.0000
vt 0.8362 0.1282 0.0000
vt 1.1264 0.0797 0.0000
vt 1.3158 0.3861 0.0000
vt 0.8840 1.1933 0.0000
vt 0.5928 1.2352 0.0000
vt 0.4104 0.9244 0.0000
vt 0.5889 0.6906 0.0000
vt 0.8816 0.8568 0.0000
vt -0.4425 0.6223 0.0000
vt -0.6147 0.3838 0.0000
vt -0.4240 0.0780 0.0000
vt -0.1340 0.1277 0.0000
vt -0.1455 0.4640 0.0000
vt 0.8336 0.1283 0.0000
vt 0.8437 0.4647 0.0000
vt 0.5574 0.6417 0.0000
vt 0.3704 0.4147 0.0000
vt 0.5410 0.0973 0.0000
vt 0.1462 -0.8287 0.0000
vt 0.3319 -0.5199 0.0000
vt 0.1558 -0.2842 0.0000
vt -0.1386 -0.4473 0.0000
vt -0.1445 -0.7838 0.0000
vt 0.8932 -0.7824 0.0000
vt -0.1327 0.1260 0.0000
vt 0.3452 1.6583 0.0000
vt 0.3439 1.6605 0.0000
vt 0.3426 1.6583 0.0000
vt 0.1435 0.6442 0.0000
vt 0.1414 0.6444 0.0000
vt -0.1442 0.4663 0.0000
vt -0.3197 1.6583 0.0000
vt -0.3210 1.6605 0.0000
vt -0.3223 1.6583 0.0000
vt 1.1693 -0.2642 0.0000
vt 1.1672 -0.2640 0.0000
vt 0.8816 -0.4421 0.0000
vt 0.1567 -0.2822 0.0000
vt 0.1450 0.6841 0.0000
vt 0.1471 0.6844 0.0000
vt -0.1364 1.1986 0.0000
vt -0.1431 0.8581 0.0000
vt -0.4304 -0.2719 0.0000
vt 0.8451 0.4669 0.0000
vt 1.1415 0.6263 0.0000
vt 1.1436 0.6260 0.0000
vt -0.1459 -0.7855 0.0000
vt 0.8842 0.8567 0.0000
vt 0.8829 0.8545 0.0000
vt 0.8348 0.1265 0.0000
vt 0.8866 1.1933 0.0000
vt 0.8853 1.1950 0.0000
vt 0.3444 1.3217 0.0000
vt 0.3470 1.3217 0.0000
vt 0.0515 1.8273 0.0000
vt 0.0503 1.8251 0.0000
vt 0.1600 0.0962 0.0000
vt -0.3205 1.3217 0.0000
vt -0.3179 1.3217 0.0000
vt -0.6134 1.8273 0.0000
vt -0.6147 1.8251 0.0000
vt 0.5846 -0.2838 0.0000
vt 0.0502 -0.0080 0.0000
vt 0.6358 1.8281 0.0000
vt 0.6345 1.8304 0.0000
vt 0.1558 1.2325 0.0000
vt -0.4379 0.6956 0.0000
vt 0.5588 0.6439 0.0000
vt -0.6147 -0.5012 0.0000
vt 1.1731 0.6841 0.0000
vt 1.1744 0.6863 0.0000
vt 0.5902 0.6883 0.0000
vt 1.1250 0.0780 0.0000
vt -0.4413 0.6246 0.0000
vt 0.1449 -0.8304 0.0000
vt -0.0291 1.8281 0.0000
vt -0.0304 1.8304 0.0000
# 114 texture coords

g Hedra007
usemtl wire_138008110
s off
f 85/177/91 86/178/91 87/179/91 88/180/91 
f 85/177/91 88/180/91 89/181/91 
f 90/182/92 91/183/92 92/184/92 93/185/92 
f 90/182/92 93/185/92 94/186/92 
f 95/187/93 96/188/93 97/189/93 98/190/93 
f 95/187/93 98/190/93 99/191/93 
f 100/192/94 101/193/94 102/194/94 103/195/94 
f 100/192/94 103/195/94 104/196/94 
f 105/197/95 106/198/95 107/199/95 108/200/95 
f 105/197/95 108/200/95 109/201/95 
f 110/202/96 111/203/96 112/204/96 113/205/96 
f 110/202/96 113/205/96 114/206/96 
f 115/207/97 116/208/97 117/209/97 118/210/97 
f 115/207/97 118/210/97 119/211/97 
f 120/212/98 121/213/98 122/214/98 123/215/98 
f 120/212/99 123/215/99 124/216/99 
f 125/217/100 126/218/100 127/219/100 128/220/100 
f 125/217/100 128/220/100 129/221/100 
f 130/222/101 131/223/101 132/224/101 133/225/101 
f 130/222/102 133/225/102 134/226/102 
f 135/227/103 136/228/103 137/229/103 138/230/103 
f 135/227/103 138/230/103 139/231/103 
f 140/232/104 141/233/104 142/234/104 143/235/104 
f 140/232/104 143/235/104 144/236/104 
f 94/186/105 99/191/105 85/237/105 
f 89/181/106 133/225/106 90/238/106 
f 98/239/107 141/240/107 86/241/107 
f 140/242/108 127/243/108 87/179/108 
f 88/180/109 126/244/109 134/226/109 
f 132/245/110 139/246/110 91/247/110 
f 138/248/111 101/249/111 92/184/111 
f 93/185/112 100/250/112 95/187/112 
f 97/251/113 108/200/113 142/234/113 
f 104/196/114 109/252/114 96/253/114 
f 137/254/115 111/203/115 102/194/115 
f 103/195/116 110/202/116 105/255/116 
f 107/199/117 118/210/117 143/235/117 
f 114/256/118 119/211/118 106/198/118 
f 136/228/119 121/213/119 112/257/119 
f 113/258/120 120/212/120 115/259/120 
f 144/236/121 117/209/121 128/260/121 
f 124/261/122 129/221/122 116/262/122 
f 131/263/123 122/214/123 135/227/123 
f 125/217/124 123/264/124 130/265/124 
f 85/266/125 99/267/125 98/239/125 86/241/125 
f 86/241/126 141/240/126 140/268/126 87/269/126 
f 87/179/127 127/243/127 126/244/127 88/180/127 
f 88/180/128 134/226/128 133/225/128 89/181/128 
f 89/181/129 90/238/129 94/270/129 85/177/129 
f 90/271/130 133/272/130 132/245/130 91/247/130 
f 91/247/131 139/246/131 138/273/131 92/274/131 
f 92/184/132 101/249/132 100/250/132 93/185/132 
f 93/185/133 95/187/133 99/191/133 94/186/133 
f 95/187/134 100/250/134 104/275/134 96/188/134 
f 96/276/135 109/201/135 108/200/135 97/251/135 
f 97/277/136 142/278/136 141/240/136 98/239/136 
f 101/193/137 138/279/137 137/254/137 102/194/137 
f 102/194/138 111/203/138 110/202/138 103/195/138 
f 103/195/139 105/255/139 109/252/139 104/196/139 
f 105/255/140 110/202/140 114/206/140 106/280/140 
f 106/198/141 119/211/141 118/210/141 107/199/141 
f 107/199/142 143/235/142 142/234/142 108/200/142 
f 111/281/143 137/229/143 136/228/143 112/257/143 
f 112/257/144 121/213/144 120/212/144 113/258/144 
f 113/282/145 115/207/145 119/211/145 114/256/145 
f 115/283/146 120/284/146 124/261/146 116/262/146 
f 116/262/147 129/221/147 128/220/147 117/285/147 
f 117/209/148 144/236/148 143/235/148 118/210/148 
f 121/213/149 136/228/149 135/227/149 122/214/149 
f 122/214/150 131/263/150 130/286/150 123/215/150 
f 123/264/151 125/217/151 129/221/151 124/261/151 
f 125/287/152 130/222/152 134/226/152 126/244/152 
f 127/288/153 140/232/153 144/236/153 128/260/153 
f 131/289/154 135/290/154 139/246/154 132/245/154 
# 42 polygons - 32 triangles

