# Blender v2.79 (sub 0) OBJ File: 'untitled.blend'
# www.blender.org
mtllib axe.mtl
o axe_Cylinder.015
v 0.017073 0.155081 0.090426
v 0.017073 0.202245 0.090426
v 0.000048 0.155081 0.090426
v 0.000048 0.202245 0.090426
v 0.017073 0.155081 0.142154
v 0.017073 0.202245 0.142154
v 0.000048 0.202245 0.142154
v 0.000048 0.155081 0.142154
v 0.017073 0.178663 0.090426
v 0.000048 0.178663 0.090426
v 0.017073 0.178663 0.142154
v 0.010455 0.202245 0.142154
v 0.000048 0.225176 0.201372
v 0.000048 0.178663 0.214454
v 0.000048 0.132150 0.201372
v 0.010455 0.155081 0.142154
v 0.010455 0.178663 0.142154
v 0.000043 0.210746 0.101035
v 0.000043 -0.036295 0.101354
v -0.014267 0.208077 0.110191
v -0.013294 -0.038091 0.110417
v -0.008117 0.209344 0.125969
v -0.008801 -0.037326 0.127014
v 0.008146 0.208113 0.125883
v 0.008581 -0.040524 0.126547
v 0.013057 0.208702 0.110492
v 0.013084 -0.039654 0.110486
v 0.000043 0.179195 0.101629
v 0.000043 0.155361 0.100578
v 0.000043 0.125727 0.100900
v 0.000043 0.099006 0.101517
v 0.000043 0.071742 0.099794
v 0.000043 0.044153 0.101008
v 0.000043 0.017274 0.101083
v 0.000043 -0.010356 0.100905
v -0.013081 -0.011625 0.110467
v -0.013599 0.015950 0.110346
v -0.013355 0.044368 0.110403
v -0.013647 0.071417 0.110335
v -0.014267 0.099009 0.110191
v -0.013477 0.126852 0.110375
v -0.012644 0.153509 0.110568
v -0.012918 0.180930 0.110504
v -0.008003 -0.010968 0.125796
v -0.008369 0.016490 0.126354
v -0.008249 0.043623 0.126170
v -0.007766 0.071521 0.125434
v -0.007993 0.099067 0.125779
v -0.008531 0.127393 0.126601
v -0.008673 0.156222 0.126817
v -0.008241 0.184050 0.126159
v 0.007913 -0.007705 0.125527
v 0.008534 0.017447 0.126474
v 0.008488 0.042777 0.126405
v 0.008051 0.071902 0.125737
v 0.008473 0.099126 0.126382
v 0.007954 0.126577 0.125590
v 0.007775 0.153963 0.125316
v 0.008887 0.180810 0.127014
v 0.012947 -0.009396 0.110518
v 0.014353 0.017208 0.110191
v 0.013310 0.043193 0.110433
v 0.013249 0.071436 0.110447
v 0.013246 0.099037 0.110448
v 0.014353 0.126276 0.110191
v 0.013703 0.153863 0.110342
v 0.013372 0.184676 0.110419
v -0.016982 0.155081 0.090426
v -0.016982 0.202245 0.090426
v -0.016982 0.155081 0.142154
v -0.016982 0.202245 0.142154
v -0.016982 0.178663 0.090426
v -0.016982 0.178663 0.142154
v -0.010364 0.202245 0.142154
v -0.010364 0.155081 0.142154
v -0.010364 0.178663 0.142154
vn -0.5879 -0.0140 -0.8088
vn -0.9494 0.0071 0.3141
vn 0.0075 0.0459 0.9989
vn -0.1827 -0.9776 -0.1042
vn 0.9487 0.0291 0.3149
vn 0.5972 0.0035 -0.8021
vn -0.0232 0.9993 0.0308
vn 0.5889 0.0102 -0.8082
vn 0.5482 0.0080 -0.8363
vn 0.5827 0.0182 -0.8125
vn 0.5451 -0.0301 -0.8378
vn 0.5595 0.0523 -0.8272
vn 0.6270 -0.0342 -0.7782
vn 0.5803 0.0309 -0.8138
vn 0.5364 -0.0387 -0.8431
vn 0.9516 0.0385 0.3051
vn 0.9671 -0.0558 0.2484
vn 0.9298 0.0098 0.3681
vn 0.9233 0.0285 0.3831
vn 0.9577 -0.0217 0.2870
vn 0.9468 0.0216 0.3212
vn 0.9573 0.0025 0.2891
vn 0.9409 -0.0359 0.3368
vn 0.0059 0.0075 1.0000
vn -0.0453 0.0243 0.9987
vn 0.0900 -0.0070 0.9959
vn 0.0598 -0.0278 0.9978
vn -0.0366 -0.0128 0.9992
vn -0.0198 0.0267 0.9994
vn -0.0137 0.0068 0.9999
vn -0.0060 -0.0204 0.9998
vn -0.9297 -0.0420 0.3658
vn -0.9576 -0.0089 0.2879
vn -0.9721 0.0287 0.2328
vn -0.9565 0.0252 0.2907
vn -0.9275 -0.0189 0.3734
vn -0.9317 -0.0092 0.3630
vn -0.9512 0.0075 0.3084
vn -0.9503 -0.0165 0.3110
vn -0.5368 -0.0159 -0.8436
vn -0.5613 0.0365 -0.8268
vn -0.6179 -0.0085 -0.7862
vn -0.5749 -0.0189 -0.8180
vn -0.5183 -0.0161 -0.8550
vn -0.6092 -0.0349 -0.7923
vn -0.5742 -0.0023 -0.8187
vn -0.5621 0.0053 -0.8270
vn -0.5626 0.0061 -0.8267
vn -0.9649 0.0412 0.2593
vn 0.0327 0.0317 0.9990
vn 0.1389 -0.9903 0.0081
vn -0.1808 -0.9783 -0.1016
vn 0.9628 0.0041 0.2701
vn 0.5711 -0.0142 -0.8208
vn -0.0249 0.9695 0.2438
vn 0.0744 0.9913 -0.1086
vn 0.5549 -0.0157 -0.8318
vn 0.5837 0.0358 -0.8112
vn 0.5448 -0.0091 -0.8385
vn 0.5602 -0.0191 -0.8281
vn 0.6279 0.0001 -0.7783
vn 0.5792 0.0017 -0.8152
vn 0.5369 -0.0023 -0.8436
vn 0.5971 0.0052 -0.8021
vn 0.9646 0.0119 0.2635
vn 0.9298 0.0091 0.3681
vn 0.9234 0.0196 0.3833
vn 0.9573 -0.0362 0.2869
vn 0.9468 0.0001 0.3219
vn 0.9573 0.0019 0.2891
vn 0.9413 0.0346 0.3359
vn 0.9455 -0.0460 0.3223
vn -0.0422 0.0402 0.9983
vn 0.0817 -0.0663 0.9945
vn 0.0617 0.0104 0.9980
vn -0.0367 0.0281 0.9989
vn -0.0186 -0.0234 0.9996
vn -0.0129 0.0227 0.9997
vn -0.0073 0.0027 1.0000
vn 0.0247 -0.0383 0.9990
vn -0.9585 0.0068 0.2850
vn -0.9720 0.0206 0.2341
vn -0.9565 -0.0069 0.2918
vn -0.9273 -0.0285 0.3734
vn -0.9317 -0.0122 0.3630
vn -0.9507 0.0246 0.3090
vn -0.9506 0.0063 0.3103
vn -0.9489 -0.0190 0.3151
vn -0.5680 -0.0377 -0.8221
vn -0.6179 -0.0080 -0.7862
vn -0.5724 0.0238 -0.8196
vn -0.5183 0.0203 -0.8550
vn -0.6101 0.0500 -0.7908
vn -0.5742 -0.0083 -0.8187
vn -0.5622 0.0065 -0.8270
vn -0.5879 -0.0146 -0.8088
vn 0.0000 -0.0000 -1.0000
vn 0.0000 1.0000 0.0000
vn 0.0000 -1.0000 -0.0000
vn 1.0000 0.0000 0.0000
vn 0.9881 0.0283 0.1514
vn 0.9881 -0.0283 0.1514
vn 0.0000 0.0000 1.0000
vn 0.0000 0.9325 -0.3611
vn 0.0000 -0.9325 -0.3611
vn -1.0000 0.0000 0.0000
vn -0.9881 0.0283 0.1515
vn -0.9881 -0.0283 0.1515
usemtl AxeStick
s off
f 19//1 36//1 35//1
f 21//2 44//2 36//2
f 23//3 52//3 44//3
f 27//4 25//4 23//4
f 25//5 60//5 52//5
f 27//6 35//6 60//6
f 20//7 24//7 26//7
f 67//8 18//8 26//8
f 66//9 28//9 67//9
f 65//10 29//10 66//10
f 64//11 30//11 65//11
f 64//12 32//12 31//12
f 63//13 33//13 32//13
f 61//14 33//14 62//14
f 60//15 34//15 61//15
f 59//16 26//16 24//16
f 58//17 67//17 59//17
f 57//18 66//18 58//18
f 56//19 65//19 57//19
f 55//20 64//20 56//20
f 54//21 63//21 55//21
f 53//22 62//22 54//22
f 52//23 61//23 53//23
f 51//24 24//24 22//24
f 50//25 59//25 51//25
f 49//26 58//26 50//26
f 48//27 57//27 49//27
f 47//28 56//28 48//28
f 46//29 55//29 47//29
f 45//30 54//30 46//30
f 44//31 53//31 45//31
f 43//32 22//32 20//32
f 42//33 51//33 43//33
f 41//34 50//34 42//34
f 40//35 49//35 41//35
f 39//36 48//36 40//36
f 38//37 47//37 39//37
f 37//38 46//38 38//38
f 36//39 45//39 37//39
f 28//40 20//40 18//40
f 29//41 43//41 28//41
f 30//42 42//42 29//42
f 31//43 41//43 30//43
f 31//44 39//44 40//44
f 33//45 39//45 32//45
f 34//46 38//46 33//46
f 35//47 37//47 34//47
f 19//48 21//48 36//48
f 21//49 23//49 44//49
f 23//50 25//50 52//50
f 23//51 21//51 19//51
f 19//52 27//52 23//52
f 25//53 27//53 60//53
f 27//54 19//54 35//54
f 26//55 18//55 20//55
f 20//56 22//56 24//56
f 67//57 28//57 18//57
f 66//58 29//58 28//58
f 65//59 30//59 29//59
f 64//60 31//60 30//60
f 64//61 63//61 32//61
f 63//62 62//62 33//62
f 61//63 34//63 33//63
f 60//64 35//64 34//64
f 59//65 67//65 26//65
f 58//66 66//66 67//66
f 57//67 65//67 66//67
f 56//68 64//68 65//68
f 55//69 63//69 64//69
f 54//70 62//70 63//70
f 53//71 61//71 62//71
f 52//72 60//72 61//72
f 51//73 59//73 24//73
f 50//74 58//74 59//74
f 49//75 57//75 58//75
f 48//76 56//76 57//76
f 47//77 55//77 56//77
f 46//78 54//78 55//78
f 45//79 53//79 54//79
f 44//80 52//80 53//80
f 43//81 51//81 22//81
f 42//82 50//82 51//82
f 41//83 49//83 50//83
f 40//84 48//84 49//84
f 39//85 47//85 48//85
f 38//86 46//86 47//86
f 37//87 45//87 46//87
f 36//88 44//88 45//88
f 28//89 43//89 20//89
f 29//90 42//90 43//90
f 30//91 41//91 42//91
f 31//92 40//92 41//92
f 31//93 32//93 39//93
f 33//94 38//94 39//94
f 34//95 37//95 38//95
f 35//96 36//96 37//96
usemtl AxeBlade
f 10//97 4//97 2//97 9//97
f 7//98 6//98 2//98 4//98
f 5//99 8//99 3//99 1//99
f 9//100 2//100 6//100 11//100
f 1//100 9//100 11//100 5//100
f 3//97 10//97 9//97 1//97
f 17//101 12//101 13//101 14//101
f 16//102 17//102 14//102 15//102
f 5//103 11//103 17//103 16//103
f 11//103 6//103 12//103 17//103
f 12//104 7//104 13//104
f 8//105 16//105 15//105
f 10//97 72//97 69//97 4//97
f 7//98 4//98 69//98 71//98
f 70//99 68//99 3//99 8//99
f 72//106 73//106 71//106 69//106
f 68//106 70//106 73//106 72//106
f 3//97 68//97 72//97 10//97
f 76//107 14//107 13//107 74//107
f 75//108 15//108 14//108 76//108
f 70//103 75//103 76//103 73//103
f 73//103 76//103 74//103 71//103
f 74//104 13//104 7//104
f 8//105 15//105 75//105
