# Blender v2.79 (sub 0) OBJ File: 'untitled.blend'
# www.blender.org
mtllib pickaxe.mtl
o pickaxe_Cylinder.016
v 0.015297 0.183145 -0.077511
v 0.015297 0.202245 -0.077511
v 0.010400 0.187109 -0.077511
v 0.010400 0.200591 -0.077511
v 0.001499 0.175412 0.029549
v 0.005832 0.180904 0.002784
v 0.008066 0.184811 -0.023981
v 0.009212 0.188413 -0.050746
v 0.009212 0.199106 -0.050746
v 0.008066 0.192122 -0.023981
v 0.005832 0.184923 0.002784
v -0.015297 0.183145 -0.077511
v -0.015297 0.202245 -0.077511
v 0.000000 0.202245 -0.077511
v 0.000000 0.183145 -0.077511
v 0.000000 0.187109 -0.077511
v -0.010400 0.187109 -0.077511
v -0.010400 0.200591 -0.077511
v 0.000000 0.200591 -0.077511
v 0.000000 0.175412 0.029549
v -0.001499 0.175412 0.029549
v 0.000000 0.188413 -0.050746
v 0.000000 0.184811 -0.023981
v 0.000000 0.180904 0.002784
v -0.005832 0.180904 0.002784
v -0.008066 0.184811 -0.023981
v -0.009212 0.188413 -0.050746
v 0.000000 0.184923 0.002784
v 0.000000 0.192122 -0.023981
v 0.000000 0.199106 -0.050746
v -0.009212 0.199106 -0.050746
v -0.008066 0.192122 -0.023981
v -0.005832 0.184923 0.002784
v 0.015297 0.183145 -0.109395
v 0.015297 0.202245 -0.109395
v 0.015297 0.202245 -0.093453
v 0.015297 0.183145 -0.093453
v 0.010400 0.187109 -0.109395
v 0.010400 0.200591 -0.109395
v 0.001499 0.175412 -0.216455
v 0.005832 0.180904 -0.189690
v 0.008066 0.184811 -0.162925
v 0.009212 0.188413 -0.136160
v 0.009212 0.199106 -0.136160
v 0.008066 0.192122 -0.162925
v 0.005832 0.184923 -0.189690
v -0.015297 0.183145 -0.109395
v -0.015297 0.202245 -0.109395
v 0.000000 0.202245 -0.109395
v 0.000000 0.183145 -0.109395
v -0.015297 0.202245 -0.093453
v 0.000000 0.183145 -0.093453
v 0.000000 0.202245 -0.093453
v -0.015297 0.183145 -0.093453
v 0.000000 0.187109 -0.109395
v -0.010400 0.187109 -0.109395
v -0.010400 0.200591 -0.109395
v 0.000000 0.200591 -0.109395
v 0.000000 0.175412 -0.216455
v -0.001499 0.175412 -0.216455
v 0.000000 0.188413 -0.136160
v 0.000000 0.184811 -0.162925
v 0.000000 0.180904 -0.189690
v -0.005832 0.180904 -0.189690
v -0.008066 0.184811 -0.162925
v -0.009212 0.188413 -0.136160
v 0.000000 0.184923 -0.189690
v 0.000000 0.192122 -0.162925
v 0.000000 0.199106 -0.136160
v -0.009212 0.199106 -0.136160
v -0.008066 0.192122 -0.162925
v -0.005832 0.184923 -0.189690
v 0.000043 0.210746 -0.107342
v 0.000043 -0.036295 -0.107024
v -0.014267 0.208077 -0.098186
v -0.013294 -0.038091 -0.097960
v -0.008117 0.209344 -0.082408
v -0.008801 -0.037326 -0.081364
v 0.008146 0.208113 -0.082495
v 0.008581 -0.040524 -0.081830
v 0.013057 0.208702 -0.097885
v 0.013084 -0.039654 -0.097892
v 0.000043 0.179195 -0.106748
v 0.000043 0.155361 -0.107799
v 0.000043 0.125727 -0.107477
v 0.000043 0.099006 -0.106861
v 0.000043 0.071742 -0.108583
v 0.000043 0.044153 -0.107369
v 0.000043 0.017274 -0.107294
v 0.000043 -0.010356 -0.107472
v -0.013081 -0.011625 -0.097911
v -0.013599 0.015950 -0.098031
v -0.013355 0.044368 -0.097974
v -0.013647 0.071417 -0.098042
v -0.014267 0.099009 -0.098186
v -0.013477 0.126852 -0.098003
v -0.012644 0.153509 -0.097809
v -0.012918 0.180930 -0.097873
v -0.008003 -0.010968 -0.082582
v -0.008369 0.016490 -0.082023
v -0.008249 0.043623 -0.082207
v -0.007766 0.071521 -0.082944
v -0.007993 0.099067 -0.082598
v -0.008531 0.127393 -0.081776
v -0.008673 0.156222 -0.081560
v -0.008241 0.184050 -0.082219
v 0.007913 -0.007705 -0.082851
v 0.008534 0.017447 -0.081903
v 0.008488 0.042777 -0.081972
v 0.008051 0.071902 -0.082640
v 0.008473 0.099126 -0.081995
v 0.007954 0.126577 -0.082787
v 0.007775 0.153963 -0.083062
v 0.008887 0.180810 -0.081364
v 0.012947 -0.009396 -0.097860
v 0.014353 0.017208 -0.098186
v 0.013310 0.043193 -0.097944
v 0.013249 0.071436 -0.097930
v 0.013246 0.099037 -0.097929
v 0.014353 0.126276 -0.098186
v 0.013703 0.153863 -0.098035
v 0.013372 0.184676 -0.097959
vn -0.5879 -0.0140 -0.8088
vn -0.9494 0.0071 0.3141
vn 0.0075 0.0459 0.9989
vn -0.1827 -0.9776 -0.1042
vn 0.9487 0.0291 0.3149
vn 0.5972 0.0035 -0.8021
vn -0.0232 0.9993 0.0308
vn 0.5889 0.0102 -0.8082
vn 0.5482 0.0080 -0.8363
vn 0.5827 0.0182 -0.8125
vn 0.5451 -0.0301 -0.8378
vn 0.5595 0.0523 -0.8272
vn 0.6270 -0.0342 -0.7782
vn 0.5803 0.0309 -0.8138
vn 0.5364 -0.0387 -0.8431
vn 0.9516 0.0385 0.3051
vn 0.9671 -0.0558 0.2484
vn 0.9298 0.0098 0.3681
vn 0.9233 0.0285 0.3831
vn 0.9577 -0.0217 0.2870
vn 0.9468 0.0216 0.3212
vn 0.9573 0.0025 0.2891
vn 0.9409 -0.0359 0.3368
vn 0.0059 0.0075 1.0000
vn -0.0453 0.0243 0.9987
vn 0.0900 -0.0070 0.9959
vn 0.0598 -0.0278 0.9978
vn -0.0366 -0.0128 0.9992
vn -0.0198 0.0267 0.9994
vn -0.0137 0.0068 0.9999
vn -0.0060 -0.0204 0.9998
vn -0.9297 -0.0420 0.3658
vn -0.9576 -0.0089 0.2879
vn -0.9721 0.0287 0.2328
vn -0.9565 0.0252 0.2907
vn -0.9275 -0.0189 0.3734
vn -0.9317 -0.0092 0.3630
vn -0.9512 0.0075 0.3084
vn -0.9503 -0.0165 0.3110
vn -0.5368 -0.0159 -0.8436
vn -0.5613 0.0365 -0.8268
vn -0.6178 -0.0085 -0.7862
vn -0.5749 -0.0189 -0.8180
vn -0.5183 -0.0161 -0.8550
vn -0.6092 -0.0349 -0.7923
vn -0.5742 -0.0023 -0.8187
vn -0.5621 0.0053 -0.8270
vn -0.5626 0.0061 -0.8267
vn -0.9649 0.0412 0.2593
vn 0.0327 0.0317 0.9990
vn 0.1389 -0.9903 0.0081
vn -0.1808 -0.9783 -0.1016
vn 0.9628 0.0041 0.2701
vn 0.5711 -0.0142 -0.8208
vn -0.0249 0.9695 0.2438
vn 0.0744 0.9913 -0.1086
vn 0.5549 -0.0157 -0.8318
vn 0.5837 0.0358 -0.8112
vn 0.5448 -0.0091 -0.8385
vn 0.5602 -0.0191 -0.8281
vn 0.6279 0.0001 -0.7783
vn 0.5792 0.0017 -0.8152
vn 0.5369 -0.0023 -0.8436
vn 0.5971 0.0052 -0.8021
vn 0.9646 0.0119 0.2635
vn 0.9298 0.0091 0.3681
vn 0.9234 0.0196 0.3833
vn 0.9573 -0.0362 0.2869
vn 0.9468 0.0001 0.3219
vn 0.9573 0.0019 0.2891
vn 0.9413 0.0346 0.3359
vn 0.9455 -0.0460 0.3223
vn -0.0422 0.0402 0.9983
vn 0.0817 -0.0663 0.9945
vn 0.0617 0.0104 0.9980
vn -0.0367 0.0281 0.9989
vn -0.0186 -0.0234 0.9996
vn -0.0129 0.0227 0.9997
vn -0.0073 0.0027 1.0000
vn 0.0247 -0.0383 0.9990
vn -0.9585 0.0068 0.2850
vn -0.9720 0.0206 0.2341
vn -0.9565 -0.0069 0.2918
vn -0.9273 -0.0285 0.3734
vn -0.9317 -0.0122 0.3630
vn -0.9507 0.0246 0.3090
vn -0.9506 0.0063 0.3103
vn -0.9489 -0.0190 0.3151
vn -0.5680 -0.0377 -0.8221
vn -0.6179 -0.0080 -0.7862
vn -0.5724 0.0238 -0.8196
vn -0.5183 0.0203 -0.8550
vn -0.6101 0.0500 -0.7908
vn -0.5742 -0.0083 -0.8187
vn -0.5622 0.0065 -0.8270
vn -0.5879 -0.0146 -0.8088
vn -0.0000 0.0000 1.0000
vn 1.0000 0.0000 0.0000
vn 0.0000 -1.0000 0.0000
vn 0.0000 1.0000 0.0000
vn -0.0000 -0.9911 -0.1334
vn 0.0000 -0.9796 -0.2010
vn 0.0000 -0.9988 0.0487
vn 0.0000 0.9423 0.3348
vn -0.0000 -0.9895 -0.1444
vn 0.0000 0.9985 0.0554
vn 0.0000 0.9676 0.2525
vn 0.0000 0.9657 0.2598
vn 0.9871 0.0000 0.1598
vn 0.9965 -0.0000 0.0832
vn 0.9991 0.0000 0.0428
vn 0.9990 0.0000 0.0443
vn -1.0000 0.0000 0.0000
vn -0.9871 0.0000 0.1598
vn -0.9965 -0.0000 0.0832
vn -0.9991 0.0000 0.0428
vn -0.9990 0.0000 0.0443
vn 0.0000 0.0000 -1.0000
vn -0.0000 -0.9911 0.1334
vn 0.0000 -0.9796 0.2010
vn 0.0000 -0.9988 -0.0487
vn 0.0000 0.9423 -0.3348
vn 0.0000 -0.9895 0.1444
vn 0.0000 0.9985 -0.0554
vn 0.0000 0.9676 -0.2525
vn 0.0000 0.9657 -0.2598
vn 0.9871 0.0000 -0.1598
vn 0.9965 -0.0000 -0.0832
vn 0.9991 -0.0000 -0.0428
vn 0.9990 0.0000 -0.0443
vn -0.9871 0.0000 -0.1598
vn -0.9965 -0.0000 -0.0832
vn -0.9991 -0.0000 -0.0428
vn -0.9990 0.0000 -0.0443
usemtl AxeStick
s off
f 74//1 91//1 90//1
f 76//2 99//2 91//2
f 78//3 107//3 99//3
f 82//4 80//4 78//4
f 80//5 115//5 107//5
f 82//6 90//6 115//6
f 75//7 79//7 81//7
f 122//8 73//8 81//8
f 121//9 83//9 122//9
f 120//10 84//10 121//10
f 119//11 85//11 120//11
f 119//12 87//12 86//12
f 118//13 88//13 87//13
f 116//14 88//14 117//14
f 115//15 89//15 116//15
f 114//16 81//16 79//16
f 113//17 122//17 114//17
f 112//18 121//18 113//18
f 111//19 120//19 112//19
f 110//20 119//20 111//20
f 109//21 118//21 110//21
f 108//22 117//22 109//22
f 107//23 116//23 108//23
f 106//24 79//24 77//24
f 105//25 114//25 106//25
f 104//26 113//26 105//26
f 103//27 112//27 104//27
f 102//28 111//28 103//28
f 101//29 110//29 102//29
f 100//30 109//30 101//30
f 99//31 108//31 100//31
f 98//32 77//32 75//32
f 97//33 106//33 98//33
f 96//34 105//34 97//34
f 95//35 104//35 96//35
f 94//36 103//36 95//36
f 93//37 102//37 94//37
f 92//38 101//38 93//38
f 91//39 100//39 92//39
f 83//40 75//40 73//40
f 84//41 98//41 83//41
f 85//42 97//42 84//42
f 86//43 96//43 85//43
f 86//44 94//44 95//44
f 88//45 94//45 87//45
f 89//46 93//46 88//46
f 90//47 92//47 89//47
f 74//48 76//48 91//48
f 76//49 78//49 99//49
f 78//50 80//50 107//50
f 78//51 76//51 74//51
f 74//52 82//52 78//52
f 80//53 82//53 115//53
f 82//54 74//54 90//54
f 81//55 73//55 75//55
f 75//56 77//56 79//56
f 122//57 83//57 73//57
f 121//58 84//58 83//58
f 120//59 85//59 84//59
f 119//60 86//60 85//60
f 119//61 118//61 87//61
f 118//62 117//62 88//62
f 116//63 89//63 88//63
f 115//64 90//64 89//64
f 114//65 122//65 81//65
f 113//66 121//66 122//66
f 112//67 120//67 121//67
f 111//68 119//68 120//68
f 110//69 118//69 119//69
f 109//70 117//70 118//70
f 108//71 116//71 117//71
f 107//72 115//72 116//72
f 106//73 114//73 79//73
f 105//74 113//74 114//74
f 104//75 112//75 113//75
f 103//76 111//76 112//76
f 102//77 110//77 111//77
f 101//78 109//78 110//78
f 100//79 108//79 109//79
f 99//80 107//80 108//80
f 98//81 106//81 77//81
f 97//82 105//82 106//82
f 96//83 104//83 105//83
f 95//84 103//84 104//84
f 94//85 102//85 103//85
f 93//86 101//86 102//86
f 92//87 100//87 101//87
f 91//88 99//88 100//88
f 83//89 98//89 75//89
f 84//90 97//90 98//90
f 85//91 96//91 97//91
f 86//92 95//92 96//92
f 86//93 87//93 94//93
f 88//94 93//94 94//94
f 89//95 92//95 93//95
f 90//96 91//96 92//96
usemtl AxeBlade
f 1//97 2//97 4//97 3//97
f 36//98 2//98 1//98 37//98
f 2//97 14//97 19//97 4//97
f 1//99 15//99 52//99 37//99
f 14//100 2//100 36//100 53//100
f 22//101 8//101 7//101 23//101
f 15//97 1//97 3//97 16//97
f 24//102 6//102 5//102 20//102
f 16//103 3//103 8//103 22//103
f 11//104 28//104 20//104 5//104
f 23//105 7//105 6//105 24//105
f 4//106 19//106 30//106 9//106
f 9//107 30//107 29//107 10//107
f 10//108 29//108 28//108 11//108
f 5//109 6//109 11//109
f 6//110 7//110 10//110 11//110
f 7//111 8//111 9//111 10//111
f 4//112 9//112 8//112 3//112
f 12//97 17//97 18//97 13//97
f 51//113 54//113 12//113 13//113
f 13//97 18//97 19//97 14//97
f 12//99 54//99 52//99 15//99
f 14//100 53//100 51//100 13//100
f 22//101 23//101 26//101 27//101
f 15//97 16//97 17//97 12//97
f 24//102 20//102 21//102 25//102
f 16//103 22//103 27//103 17//103
f 33//104 21//104 20//104 28//104
f 23//105 24//105 25//105 26//105
f 18//106 31//106 30//106 19//106
f 31//107 32//107 29//107 30//107
f 32//108 33//108 28//108 29//108
f 21//114 33//114 25//114
f 25//115 33//115 32//115 26//115
f 26//116 32//116 31//116 27//116
f 18//117 17//117 27//117 31//117
f 34//118 38//118 39//118 35//118
f 36//98 37//98 34//98 35//98
f 35//118 39//118 58//118 49//118
f 34//99 37//99 52//99 50//99
f 49//100 53//100 36//100 35//100
f 61//119 62//119 42//119 43//119
f 50//118 55//118 38//118 34//118
f 63//120 59//120 40//120 41//120
f 55//121 61//121 43//121 38//121
f 46//122 40//122 59//122 67//122
f 62//123 63//123 41//123 42//123
f 39//124 44//124 69//124 58//124
f 44//125 45//125 68//125 69//125
f 45//126 46//126 67//126 68//126
f 40//127 46//127 41//127
f 41//128 46//128 45//128 42//128
f 42//129 45//129 44//129 43//129
f 39//130 38//130 43//130 44//130
f 47//118 48//118 57//118 56//118
f 51//113 48//113 47//113 54//113
f 48//118 49//118 58//118 57//118
f 47//99 50//99 52//99 54//99
f 49//100 48//100 51//100 53//100
f 61//119 66//119 65//119 62//119
f 50//118 47//118 56//118 55//118
f 63//120 64//120 60//120 59//120
f 55//121 56//121 66//121 61//121
f 72//122 67//122 59//122 60//122
f 62//123 65//123 64//123 63//123
f 57//124 58//124 69//124 70//124
f 70//125 69//125 68//125 71//125
f 71//126 68//126 67//126 72//126
f 60//131 64//131 72//131
f 64//132 65//132 71//132 72//132
f 65//133 66//133 70//133 71//133
f 57//134 70//134 66//134 56//134
